<svg xmlns="http://www.w3.org/2000/svg" width="385.846" height="333.678" viewBox="0 0 392 339">
  <defs>
    <style>
      .cls-1 {
        fill: #fff;
        fill-rule: evenodd;
      }
    </style>
  </defs>
  <path id="M" class="cls-1" d="M74.749,241.93V135.474l42.29,105,0.625,1.458h40l0.625-1.458,41.874-104.581V241.93H238.5V32.977H200.371l-0.209.417-62.5,155.83L74.749,32.977H36.416V241.93H74.749Z"/>
  <path id="i" class="cls-1" d="M266.583,218.985v6.355h19.064V149.086H266.583v69.9Zm19.064-83.337V114.5H266.583v21.147h19.064Z"/>
  <path id="i-2" data-name="i" class="cls-1" d="M318.583,218.985v6.355h19.064V149.086H318.583v69.9Zm19.064-83.337V114.5H318.583v21.147h19.064Z"/>
  <path id="L" class="cls-1" d="M238.028,293.912H371.854V255.579H238.028V84.959H199.521V293.912h38.507Z"/>
</svg>
